<?xml version="1.0" encoding="iso-8859-1"?>
<!-- Uploaded to: SVG Repo, www.svgrepo.com, Generator: SVG Repo Mixer Tools -->
<!DOCTYPE svg PUBLIC "-//W3C//DTD SVG 1.1//EN" "http://www.w3.org/Graphics/SVG/1.1/DTD/svg11.dtd">
<svg fill="#000000" version="1.1" id="Capa_1" xmlns="http://www.w3.org/2000/svg" xmlns:xlink="http://www.w3.org/1999/xlink" 
	 width="800px" height="800px" viewBox="0 0 474.842 474.842"
	 xml:space="preserve">
<g>
	<g>
		<path d="M435.012,40.559c-6.096-6.414-5.839-16.557,0.577-22.658l13.417-12.757c1.117-1.066,2.359-1.924,3.662-2.605l-0.981-1.028
			l-33.37,4.308l-1.038,0.99c-0.444,8.724-6.532,21.449-17.616,31.975c-9.834,9.357-22.001,13.879-31.118,14.36l-4.62,4.396
			c9.658,10.307,11.649,20.588,0.966,30.913l-96.139,92.844c-4.384,0.905-9.152,0.755-13.637-1.686
			c-13.992-7.61-11.438-30.991,35.686-76.918l-103.403,55.555c0,0,23.678,7.704,22.121,25.866
			c-1.553,18.17-10.277,23.829-33.472,36.113C152.849,232.513,0,286.837,0,286.837l178.266,15.316l31.49,171.178l55.593-169.69
			c0,0,18.551-37.205,48.081-5.931l39.514-88.046c0,0-41.857,57.825-66.343,35.961c-14.046-12.543-7.313-29.848,0.974-42.334
			l99.376-95.98l-0.067-0.08c9.638-7.514,18.746-5.164,27.555,3.48l4.652-4.42c0.926-9.084,6.063-21.003,15.901-30.36
			c11.077-10.532,24.085-15.976,32.825-15.976l1.042-0.99l5.983-33.111l-0.982-1.03c-0.753,1.272-1.671,2.469-2.793,3.535
			L457.65,41.114C451.242,47.225,441.107,46.973,435.012,40.559z"/>
	</g>
</g>
</svg>