<?xml version="1.0" encoding="iso-8859-1"?>
<!-- Uploaded to: SVG Repo, www.svgrepo.com, Generator: SVG Repo Mixer Tools -->
<!DOCTYPE svg PUBLIC "-//W3C//DTD SVG 1.1//EN" "http://www.w3.org/Graphics/SVG/1.1/DTD/svg11.dtd">
<svg fill="#000000" version="1.1" id="Capa_1" xmlns="http://www.w3.org/2000/svg" xmlns:xlink="http://www.w3.org/1999/xlink" 
	 width="800px" height="800px" viewBox="0 0 381.48 381.48"
	 xml:space="preserve">
<g>
	<path d="M132.92,381.48h115.642c25.836,0,46.763-9.169,46.763-20.47c0,0,0-4.585,0-10.228s-7.481-13.998-16.694-18.658
		l-66.5-33.618c0.185-1.166,0.361-2.337,0.361-3.547v-57.69l31.454,1.899c18.398,1.105,34.224-12.924,35.342-31.322l1.351-22.438
		l-50.706-3.054c-7.354-0.449-12.964-6.774-12.512-14.138c0.445-7.364,6.769-12.972,14.122-12.531l50.69,3.056l1.715-28.334
		l-50.706-3.052c-7.35-0.449-12.956-6.776-12.511-14.14c0.429-7.364,6.769-12.968,14.122-12.527l50.706,3.052l1.711-28.331
		l-50.698-3.052c-7.361-0.449-12.972-6.776-12.527-14.14c0.445-7.379,6.761-12.968,14.135-12.531l50.689,3.056l0.453-7.417
		c1.114-18.418-12.916-34.238-31.318-35.344l-98.346-5.917c-18.406-1.124-34.228,12.902-35.333,31.306l-0.453,7.432l50.686,3.056
		c7.355,0.449,12.964,6.756,12.531,14.14c-0.457,7.36-6.781,12.968-14.13,12.527l-50.69-3.056l-1.713,28.334l50.682,3.052
		c7.35,0.449,12.98,6.776,12.531,14.14c-0.44,7.364-6.776,12.968-14.132,12.527l-50.69-3.052l-1.711,28.333l50.698,3.054
		c7.355,0.445,12.96,6.774,12.511,14.138c-0.429,7.363-6.756,12.966-14.128,12.529l-50.682-3.054l-1.356,22.417
		c-1.108,18.414,12.92,34.228,31.328,35.342l19.767,1.187v60.536c0,1.354,0.18,2.656,0.403,3.947l-63.047,32.973
		c-9.155,4.797-16.573,13.253-16.573,18.892c0,3.018,0,6.516,0,10.239C86.164,372.311,107.092,381.48,132.92,381.48z"/>
</g>
</svg>